# xmcd
#
# Track frame offsets: 
#        150
#        18410
#        28445
#        44218
#        58120
#        71833
#        89128
#        111753
#        125055
#        146045
#        162320
#        175763
#
# Disc length: 2514 seconds
#
# Revision: 3
# Processed by: cddbd v1.5.2PL0 Copyright (c) Steve Scherf et al.
# Submitted via: ExactAudioCopyFreeDBPlugin 1.0
#
DISCID=bf09d00c
DTITLE=Mississippi John Hurt - Stefan Grossman's Masters Of Country Bl
DTITLE=ues Guitar - Disc 2
DYEAR=1900
DGENRE=Songster Pre-Blues Era Music
TTITLE0=Let The Mermaids Flirt With Me
TTITLE1=Corrinna, Corrinna
TTITLE2=Oh, Mary Don't You Weep
TTITLE3=Avalon Blues
TTITLE4=Sliding Delta
TTITLE5=Coffee Blues
TTITLE6=Monday Morning Blues
TTITLE7=Candy Man
TTITLE8=Trouble I've Had All My Days
TTITLE9=See, See Rider
TTITLE10=Stack O'Lee Blues
TTITLE11=Big Leg Blues
EXTD=
EXTT0=
EXTT1=
EXTT2=
EXTT3=
EXTT4=
EXTT5=
EXTT6=
EXTT7=
EXTT8=
EXTT9=
EXTT10=
EXTT11=
PLAYORDER=
